<svg width="161" height="32" viewBox="0 0 161 32" fill="none" xmlns="http://www.w3.org/2000/svg">
<g filter="url(#filter0_d_175_30)">
<rect x="4" y="15.0811" width="8.91892" height="8.91892" fill="url(#paint0_linear_175_30)"/>
</g>
<g filter="url(#filter1_d_175_30)">
<path d="M11.5674 4V12.9189L27.5133 24V15.0811L11.5674 4Z" fill="url(#paint1_linear_175_30)"/>
</g>
<g filter="url(#filter2_d_175_30)">
<path d="M26.1621 4V12.9189L42.1081 24V15.0811L26.1621 4Z" fill="url(#paint2_linear_175_30)"/>
</g>
<path d="M51.6992 7.6875H53.1992L59.0117 14.3672L64.8008 7.6875H66.3008V24H63.957V11.5781L63.2656 12.5156L59.0117 17.4727L54.7578 12.5273L54.043 11.5898V24H51.6992V7.6875ZM75.4648 24.1875C71.043 24.1875 68.832 22.0273 68.832 17.707C68.832 15.8477 69.4453 14.3594 70.6719 13.2422C71.7734 12.2266 73.0312 11.7188 74.4453 11.7188C75.9844 11.7188 77.1875 12.2344 78.0547 13.2656C78.8594 14.2266 79.2617 15.5117 79.2617 17.1211V18.0352H71.2695C71.2695 20.2461 72.1719 21.5977 73.9766 22.0898C74.4062 22.207 75.0664 22.2656 75.957 22.2656C76.8555 22.2656 77.7344 22.1445 78.5938 21.9023V23.8828C77.7344 24.0859 76.6914 24.1875 75.4648 24.1875ZM76.918 16.3125C76.918 15.5625 76.7109 14.9297 76.2969 14.4141C75.8125 13.8203 75.1445 13.5234 74.293 13.5234C73.3945 13.5234 72.6641 13.8086 72.1016 14.3789C71.5859 14.9102 71.3281 15.5547 71.3281 16.3125H76.918ZM87.2891 13.7344C86.125 13.7344 85.0898 14.1289 84.1836 14.918V24H81.8398V11.9062H84.0078L84.1719 13.2188C85.4453 12.2188 86.7617 11.7188 88.1211 11.7188C89.5586 11.7188 90.6133 12.1484 91.2852 13.0078C91.9883 13.9141 92.3398 15.375 92.3398 17.3906V24H89.9961V17.3906C89.9961 15.4531 89.4727 14.2969 88.4258 13.9219C88.0898 13.7969 87.7109 13.7344 87.2891 13.7344ZM100.203 22.1484C100.461 22.2422 100.852 22.2891 101.375 22.2891C101.898 22.2891 102.336 22.2266 102.688 22.1016V23.9766C102.523 24.0156 102.285 24.0391 101.973 24.0469L101.234 24.0703C101.07 24.0703 100.945 24.0703 100.859 24.0703C99.3516 24.0703 98.2383 23.5781 97.5195 22.5938C96.9414 21.7969 96.6523 20.7422 96.6523 19.4297V13.6992H94.918V12.5977L96.6523 11.9062L97.2148 8.90625H98.9961V11.9062H102.746V13.6992H98.9961V19.418C98.9961 20.9492 99.3984 21.8594 100.203 22.1484ZM113.551 14.0508C113.121 13.9258 112.605 13.8633 112.004 13.8633C111.41 13.8633 110.922 13.9258 110.539 14.0508C110.156 14.168 109.82 14.3125 109.531 14.4844C109 14.7969 108.613 15.1484 108.371 15.5391V24H106.027V11.9062H108.277L108.371 13.582C108.957 12.8477 109.812 12.2969 110.938 11.9297C111.344 11.7891 111.809 11.7188 112.332 11.7188C112.855 11.7188 113.262 11.7578 113.551 11.8359V14.0508ZM116.41 21.8438C116.152 21.3984 115.945 20.875 115.789 20.2734C115.641 19.6719 115.566 18.8867 115.566 17.918C115.566 16.9492 115.773 16.0586 116.188 15.2461C116.609 14.4258 117.156 13.7539 117.828 13.2305C119.133 12.2227 120.754 11.7188 122.691 11.7188C123.699 11.7188 124.461 11.7422 124.977 11.7891C124.977 11.7891 125.355 11.8281 126.113 11.9062V24H124.004L123.91 22.6055C123.441 23.2305 122.727 23.6953 121.766 24C121.398 24.1172 121.02 24.1758 120.629 24.1758C120.246 24.1758 119.867 24.1367 119.492 24.0586C119.117 23.9805 118.742 23.8516 118.367 23.6719C118 23.4922 117.648 23.2539 117.312 22.957C116.977 22.6523 116.676 22.2812 116.41 21.8438ZM123.77 13.6289C123.27 13.5664 122.77 13.5352 122.27 13.5352C121.777 13.5352 121.25 13.625 120.688 13.8047C120.125 13.9766 119.645 14.25 119.246 14.625C118.418 15.4062 118.004 16.5977 118.004 18.1992C118.004 19.7148 118.359 20.8359 119.07 21.5625C119.609 22.1016 120.258 22.3711 121.016 22.3711C121.992 22.3711 122.797 22.0156 123.43 21.3047C123.586 21.125 123.699 20.9648 123.77 20.8242V13.6289ZM129.324 15.8672C129.324 14.5938 129.516 13.4414 129.898 12.4102C130.281 11.3789 130.812 10.5 131.492 9.77344C132.922 8.25781 134.777 7.5 137.059 7.5C139.348 7.5 141.199 8.25781 142.613 9.77344C144.051 11.3125 144.77 13.3438 144.77 15.8672C144.77 18.3906 144.051 20.4141 142.613 21.9375C141.207 23.4375 139.355 24.1875 137.059 24.1875C134.77 24.1875 132.914 23.4375 131.492 21.9375C130.047 20.4062 129.324 18.3828 129.324 15.8672ZM131.668 15.8555C131.668 17.6367 132.102 19.1094 132.969 20.2734C133.945 21.5703 135.309 22.2188 137.059 22.2188C138.809 22.2188 140.168 21.5703 141.137 20.2734C141.996 19.125 142.426 17.6602 142.426 15.8789C142.426 14.082 141.996 12.6016 141.137 11.4375C140.168 10.125 138.809 9.46875 137.059 9.46875C135.301 9.46875 133.938 10.125 132.969 11.4375C132.102 12.6016 131.668 14.0742 131.668 15.8555ZM157.145 22.8633C156.59 23.2539 155.879 23.5625 155.012 23.7891C154.145 24.0078 153.082 24.1172 151.824 24.1172C150.574 24.1172 149.312 24.043 148.039 23.8945V21.6211C149.18 21.8789 150.328 22.0078 151.484 22.0078C152.641 22.0078 153.508 21.9453 154.086 21.8203C154.664 21.6875 155.129 21.5156 155.48 21.3047C156.129 20.9141 156.453 20.4062 156.453 19.7812C156.453 19.2969 156.328 18.9219 156.078 18.6562C155.68 18.2422 155.105 17.8633 154.355 17.5195L151.355 16.1484C150.324 15.6641 149.594 15.2148 149.164 14.8008C148.242 13.9102 147.781 12.8789 147.781 11.707C147.781 10.5039 148.305 9.53125 149.352 8.78906C150.5 7.97656 152.133 7.57031 154.25 7.57031C155.617 7.57031 156.867 7.625 158 7.73438V9.97266C157.039 9.75391 155.965 9.64453 154.777 9.64453C153.598 9.64453 152.738 9.70703 152.199 9.83203C151.668 9.94922 151.25 10.1016 150.945 10.2891C150.391 10.6328 150.113 11.0859 150.113 11.6484C150.113 12.1953 150.289 12.6484 150.641 13.0078C150.953 13.3125 151.523 13.6641 152.352 14.0625L155.434 15.5273C156.457 16.0117 157.172 16.4688 157.578 16.8984C157.992 17.3281 158.297 17.7617 158.492 18.1992C158.688 18.6289 158.785 19.1484 158.785 19.7578C158.785 20.3594 158.652 20.9297 158.387 21.4688C158.121 22 157.707 22.4648 157.145 22.8633Z" fill="white"/>
<defs>
<filter id="filter0_d_175_30" x="0" y="15.0811" width="16.9189" height="16.9189" filterUnits="userSpaceOnUse" color-interpolation-filters="sRGB">
<feFlood flood-opacity="0" result="BackgroundImageFix"/>
<feColorMatrix in="SourceAlpha" type="matrix" values="0 0 0 0 0 0 0 0 0 0 0 0 0 0 0 0 0 0 127 0" result="hardAlpha"/>
<feOffset dy="4"/>
<feGaussianBlur stdDeviation="2"/>
<feComposite in2="hardAlpha" operator="out"/>
<feColorMatrix type="matrix" values="0 0 0 0 0 0 0 0 0 0 0 0 0 0 0 0 0 0 0.2 0"/>
<feBlend mode="normal" in2="BackgroundImageFix" result="effect1_dropShadow_175_30"/>
<feBlend mode="normal" in="SourceGraphic" in2="effect1_dropShadow_175_30" result="shape"/>
</filter>
<filter id="filter1_d_175_30" x="7.56738" y="4" width="23.9458" height="28" filterUnits="userSpaceOnUse" color-interpolation-filters="sRGB">
<feFlood flood-opacity="0" result="BackgroundImageFix"/>
<feColorMatrix in="SourceAlpha" type="matrix" values="0 0 0 0 0 0 0 0 0 0 0 0 0 0 0 0 0 0 127 0" result="hardAlpha"/>
<feOffset dy="4"/>
<feGaussianBlur stdDeviation="2"/>
<feComposite in2="hardAlpha" operator="out"/>
<feColorMatrix type="matrix" values="0 0 0 0 0 0 0 0 0 0 0 0 0 0 0 0 0 0 0.2 0"/>
<feBlend mode="normal" in2="BackgroundImageFix" result="effect1_dropShadow_175_30"/>
<feBlend mode="normal" in="SourceGraphic" in2="effect1_dropShadow_175_30" result="shape"/>
</filter>
<filter id="filter2_d_175_30" x="22.1621" y="4" width="23.9458" height="28" filterUnits="userSpaceOnUse" color-interpolation-filters="sRGB">
<feFlood flood-opacity="0" result="BackgroundImageFix"/>
<feColorMatrix in="SourceAlpha" type="matrix" values="0 0 0 0 0 0 0 0 0 0 0 0 0 0 0 0 0 0 127 0" result="hardAlpha"/>
<feOffset dy="4"/>
<feGaussianBlur stdDeviation="2"/>
<feComposite in2="hardAlpha" operator="out"/>
<feColorMatrix type="matrix" values="0 0 0 0 0 0 0 0 0 0 0 0 0 0 0 0 0 0 0.2 0"/>
<feBlend mode="normal" in2="BackgroundImageFix" result="effect1_dropShadow_175_30"/>
<feBlend mode="normal" in="SourceGraphic" in2="effect1_dropShadow_175_30" result="shape"/>
</filter>
<linearGradient id="paint0_linear_175_30" x1="4" y1="15.0811" x2="12.9189" y2="15.0811" gradientUnits="userSpaceOnUse">
<stop stop-color="#4DEBA1"/>
<stop offset="1" stop-color="#226947"/>
</linearGradient>
<linearGradient id="paint1_linear_175_30" x1="11.5674" y1="8.59459" x2="27.5133" y2="18.8649" gradientUnits="userSpaceOnUse">
<stop stop-color="#48F9AB"/>
<stop offset="1" stop-color="#226947"/>
</linearGradient>
<linearGradient id="paint2_linear_175_30" x1="26.1621" y1="8.59459" x2="42.1081" y2="19.6757" gradientUnits="userSpaceOnUse">
<stop stop-color="#48F9AB"/>
<stop offset="1" stop-color="#226947"/>
</linearGradient>
</defs>
</svg>
