<svg width="16" height="23" viewBox="0 0 16 23" fill="none" xmlns="http://www.w3.org/2000/svg">
<path d="M3.62153 15.7266H2.35788C2.02274 15.7266 1.70133 15.5861 1.46435 15.336C1.22737 15.086 1.09424 14.7469 1.09424 14.3932V9.0599C1.09424 8.70627 1.22737 8.36714 1.46435 8.11709C1.70133 7.86704 2.02274 7.72656 2.35788 7.72656H4.37339M9.93975 7.72656H11.2034C11.5385 7.72656 11.8599 7.86704 12.0969 8.11709C12.3339 8.36714 12.467 8.70627 12.467 9.0599V14.3932C12.467 14.7469 12.3339 15.086 12.0969 15.336C11.8599 15.5861 11.5385 15.7266 11.2034 15.7266H9.18788" stroke="#D5D8F5" stroke-linecap="round" stroke-linejoin="round"/>
<path d="M14.9946 12.3939V11.0605" stroke="#D5D8F5" stroke-linecap="round" stroke-linejoin="round"/>
<path d="M7.41254 7.72656L4.88525 11.7266H8.67619L6.1489 15.7266" stroke="#D5D8F5" stroke-linecap="round" stroke-linejoin="round"/>
</svg>
