<svg width="25" height="25" viewBox="0 0 25 25" fill="none" xmlns="http://www.w3.org/2000/svg">
<g clip-path="url(#clip0_2219_3321)">
<path d="M14.5168 17.2858L13.8076 17.0327C12.8676 16.6974 11.8407 16.6974 10.9007 17.0327L10.1914 17.2858" stroke="#565E8C" stroke-width="1.8" stroke-linecap="round"/>
<path d="M1.54102 17.0544L2.36625 7.97675C2.49052 6.6098 2.55265 5.92633 2.95277 5.42115C3.35287 4.91598 4.00394 4.69895 5.30608 4.26491L5.86643 4.07812" stroke="#565E8C" stroke-width="1.8" stroke-linecap="round"/>
<path d="M23.1682 17.0544L22.3429 7.97675C22.2186 6.6098 22.1566 5.92633 21.7565 5.42115C21.3564 4.91598 20.7053 4.69895 19.4031 4.26491L18.8428 4.07812" stroke="#565E8C" stroke-width="1.8" stroke-linecap="round"/>
<path d="M18.843 21.3793C21.2318 21.3793 23.1684 19.4427 23.1684 17.0539C23.1684 14.6651 21.2318 12.7285 18.843 12.7285C16.4542 12.7285 14.5176 14.6651 14.5176 17.0539C14.5176 19.4427 16.4542 21.3793 18.843 21.3793Z" stroke="#565E8C" stroke-width="1.8"/>
<path d="M5.86643 21.3793C8.25529 21.3793 10.1918 19.4427 10.1918 17.0539C10.1918 14.6651 8.25529 12.7285 5.86643 12.7285C3.47757 12.7285 1.54102 14.6651 1.54102 17.0539C1.54102 19.4427 3.47757 21.3793 5.86643 21.3793Z" stroke="#565E8C" stroke-width="1.8"/>
</g>
<defs>
<clipPath id="clip0_2219_3321">
<rect width="24" height="24" fill="white" transform="translate(0.354492 0.728516)"/>
</clipPath>
</defs>
</svg>
