<svg width="25" height="25" viewBox="0 0 25 25" fill="none" xmlns="http://www.w3.org/2000/svg">
<g clip-path="url(#clip0_2219_3336)">
<path d="M22.5337 23.7012V21.2676C22.5337 19.9767 22.0238 18.7387 21.1163 17.826C20.2088 16.9132 18.9779 16.4004 17.6945 16.4004H8.01599C6.73255 16.4004 5.50167 16.9132 4.59414 17.826C3.6866 18.7387 3.17676 19.9767 3.17676 21.2676V23.7012" stroke="#565E8C" stroke-width="1.8" stroke-linecap="round" stroke-linejoin="round"/>
<path d="M12.8549 11.5333C15.5275 11.5333 17.6941 9.35413 17.6941 6.66604C17.6941 3.97795 15.5275 1.79883 12.8549 1.79883C10.1822 1.79883 8.01562 3.97795 8.01562 6.66604C8.01562 9.35413 10.1822 11.5333 12.8549 11.5333Z" stroke="#565E8C" stroke-width="1.8" stroke-linecap="round" stroke-linejoin="round"/>
</g>
<defs>
<clipPath id="clip0_2219_3336">
<rect width="24" height="24" fill="white" transform="translate(0.854492 0.728516)"/>
</clipPath>
</defs>
</svg>
