<svg width="25" height="25" viewBox="0 0 25 25" fill="none" xmlns="http://www.w3.org/2000/svg">
<g clip-path="url(#clip0_2219_3330)">
<path d="M3.60449 7.1709V21.1709C3.60449 21.7013 3.81521 22.21 4.19028 22.5851C4.56535 22.9602 5.07406 23.1709 5.60449 23.1709H19.6045C20.1349 23.1709 20.6436 22.9602 21.0187 22.5851C21.3938 22.21 21.6045 21.7013 21.6045 21.1709V7.1709" stroke="#565E8C" stroke-width="1.8" stroke-linecap="round" stroke-linejoin="round"/>
<path d="M3.60449 7.1709H21.6045" stroke="#565E8C" stroke-width="1.8" stroke-linecap="round" stroke-linejoin="round"/>
<path d="M8.60449 6.28613C8.60449 5.22527 9.02592 4.20785 9.77607 3.4577C10.5262 2.70756 11.5436 2.28613 12.6045 2.28613C13.6654 2.28613 14.6828 2.70756 15.4329 3.45771C16.1831 4.20785 16.6045 5.22527 16.6045 6.28613" stroke="#565E8C" stroke-width="1.8" stroke-linecap="round" stroke-linejoin="round"/>
</g>
<defs>
<clipPath id="clip0_2219_3330">
<rect width="24" height="24" fill="white" transform="translate(0.604492 0.728516)"/>
</clipPath>
</defs>
</svg>
